<?xml version="1.0" standalone="no"?>
<!DOCTYPE svg PUBLIC "-//W3C//DTD SVG 20010904//EN"
 "http://www.w3.org/TR/2001/REC-SVG-20010904/DTD/svg10.dtd">
<svg version="1.0" xmlns="http://www.w3.org/2000/svg"
 width="585.000000pt" height="585.000000pt" viewBox="0 0 585.000000 585.000000"
 preserveAspectRatio="xMidYMid meet">

<g transform="translate(0.000000,585.000000) scale(0.100000,-0.100000)"
fill="#000000" stroke="none">
<path d="M3095 4509 c-196 -30 -436 -68 -503 -79 -66 -11 -82 -8 -82 15 0 14
-29 35 -49 35 -6 0 -11 -7 -11 -15 0 -8 -5 -15 -11 -15 -6 0 -9 7 -5 15 4 11
-1 15 -19 15 -13 0 -26 -4 -29 -8 -3 -5 -99 -12 -213 -15 -508 -16 -642 -55
-619 -183 6 -29 14 -38 43 -51 91 -37 328 -24 570 33 81 19 122 23 200 20 161
-6 225 19 187 72 -27 39 1 45 219 49 357 6 497 28 527 83 29 55 -6 60 -205 29z
m183 -11 c-7 -21 -75 -49 -140 -59 -35 -5 -139 -11 -233 -14 l-170 -5 72 15
c54 12 408 68 466 74 5 1 7 -4 5 -11z m-831 -88 c15 -13 16 -13 11 0 -6 16 16
43 26 33 3 -4 6 -14 6 -24 0 -10 9 -19 23 -22 19 -4 19 -4 -5 -6 -32 -1 -45
-18 -28 -34 10 -9 12 -8 7 6 -8 21 3 22 29 2 19 -14 19 -15 -3 -21 -13 -3 -20
-10 -17 -16 3 -5 15 -6 27 -2 16 4 19 3 12 -5 -6 -6 -32 -14 -58 -17 -44 -6
-47 -5 -47 16 0 25 -36 70 -55 70 -6 0 -26 -11 -45 -25 -19 -14 -29 -25 -23
-25 7 0 15 5 18 10 17 28 81 -4 69 -34 -5 -12 -21 -16 -74 -16 -37 0 -116 -11
-176 -25 -184 -41 -364 -60 -451 -47 -97 16 -113 25 -113 66 0 33 23 62 68 85
33 17 218 38 442 51 340 18 313 20 357 -20z"/>
<path d="M2430 4250 c8 -5 20 -10 25 -10 6 0 3 5 -5 10 -8 5 -19 10 -25 10 -5
0 -3 -5 5 -10z"/>
<path d="M4293 4055 c-36 -15 -53 -42 -53 -83 0 -40 81 -127 245 -262 135
-111 169 -150 132 -150 -8 0 -24 -11 -37 -25 -23 -24 -23 -25 -4 -46 10 -12
32 -28 49 -37 39 -19 53 -41 90 -132 58 -143 148 -250 240 -285 l48 -19 65 35
c89 47 132 88 132 127 0 59 -177 250 -347 375 -39 28 -73 61 -75 72 -2 13 -18
25 -46 35 -23 9 -40 19 -37 22 9 9 -39 111 -84 177 -57 84 -150 182 -188 198
-41 17 -89 16 -130 -2z m104 -15 c39 0 194 -183 249 -291 39 -78 39 -80 19
-73 -17 7 -21 -21 -5 -31 6 -3 10 -15 10 -25 0 -13 9 -22 25 -26 14 -3 25 -13
25 -20 0 -11 11 -14 39 -13 33 2 47 -4 92 -41 122 -101 190 -165 253 -239 63
-75 75 -102 58 -127 -13 -20 -147 -104 -165 -104 -32 0 -92 37 -134 83 -57 62
-91 118 -130 217 -19 47 -43 92 -54 102 -10 9 -19 22 -19 30 0 10 -2 10 -8 1
-7 -10 -12 -10 -25 0 -12 8 -14 16 -7 27 7 11 10 11 10 2 0 -7 5 -10 10 -7 6
3 10 17 10 30 0 13 5 25 12 27 18 6 0 58 -25 68 -24 9 -216 167 -285 233 -23
23 -54 58 -68 79 -21 30 -24 40 -14 58 14 26 67 52 95 45 11 -3 26 -5 32 -5z
m366 -440 c3 -12 0 -20 -7 -20 -18 0 -25 10 -19 26 7 20 20 17 26 -6z"/>
<path d="M2447 3963 c-11 -10 -8 -53 3 -53 12 0 30 41 23 53 -5 9 -17 9 -26 0z"/>
<path d="M2460 3813 c0 -15 2 -16 10 -3 8 13 11 13 19 1 6 -9 18 -11 35 -7 42
10 30 26 -19 26 -36 0 -45 -3 -45 -17z"/>
<path d="M776 3735 c-22 -8 -51 -25 -65 -40 -22 -22 -26 -34 -24 -78 2 -69 22
-127 94 -274 32 -68 59 -130 59 -139 0 -9 -12 -25 -26 -36 -20 -16 -24 -26
-19 -47 4 -14 14 -34 22 -43 15 -17 15 -18 -3 -18 -15 0 -16 -2 -5 -9 11 -7
11 -23 -4 -97 -23 -118 -18 -252 14 -312 34 -66 54 -70 153 -33 170 65 206
104 188 202 -20 108 -95 301 -143 372 -19 28 -24 43 -17 55 21 41 32 94 37
188 5 86 2 112 -16 172 -12 39 -33 84 -47 101 -41 49 -122 63 -198 36z m158
-36 c76 -59 107 -245 66 -390 -8 -30 -15 -37 -34 -35 -13 0 -22 5 -19 9 7 11
-40 4 -48 -7 -4 -5 -12 -5 -19 -1 -9 6 -9 9 1 16 7 4 10 11 6 15 -4 4 -12 3
-17 -2 -12 -12 -3 -44 11 -44 5 0 9 -7 9 -15 0 -7 7 -18 17 -23 12 -7 22 -3
38 14 29 31 32 30 27 -6 -3 -21 -10 -30 -23 -30 -10 0 -21 -5 -25 -11 -4 -7 5
-10 27 -7 34 3 35 2 80 -89 48 -94 94 -226 105 -300 6 -38 4 -45 -23 -70 -34
-31 -168 -100 -212 -109 -26 -6 -32 -2 -55 39 -47 80 -44 234 6 377 11 30 22
66 25 80 3 14 11 28 17 32 8 5 7 8 -1 8 -7 0 -13 12 -13 28 0 15 -32 91 -70
170 -123 254 -129 321 -30 361 46 18 125 13 154 -10z m-74 -591 l0 -41 -20 26
c-23 29 -24 39 -8 55 18 18 28 4 28 -40z"/>
<path d="M2637 3710 c-14 -11 -32 -17 -45 -14 -17 5 -21 1 -25 -23 -4 -27 -5
-27 -12 -5 -10 30 -55 31 -55 2 0 -12 9 -24 22 -29 19 -7 10 -16 -80 -91 -56
-45 -99 -87 -95 -93 3 -6 1 -7 -5 -3 -13 8 -152 -99 -152 -117 0 -6 -8 -19
-17 -29 -16 -18 -16 -18 3 -12 11 4 16 3 11 -2 -5 -5 -18 -9 -30 -9 -39 0 -31
-30 13 -48 22 -8 38 -11 35 -6 -7 11 6 12 20 1 16 -10 19 -90 5 -108 -21 -24
4 -16 40 14 35 30 37 63 3 61 -11 0 -13 -3 -5 -6 16 -6 15 -23 -2 -23 -7 0
-16 11 -18 25 -3 14 -1 25 4 25 11 0 150 -49 228 -80 30 -12 60 -23 65 -24 12
-3 64 -25 88 -38 24 -12 66 20 45 34 -18 11 -30 10 -23 -2 4 -7 -3 -8 -22 -4
-41 10 -63 23 -63 38 0 8 -28 24 -62 36 -35 13 -67 26 -72 31 -10 9 100 97
131 105 26 7 165 -37 238 -75 27 -14 55 -26 61 -27 29 -4 165 -60 186 -76 l23
-18 -59 -55 c-33 -30 -65 -55 -71 -55 -6 0 -60 20 -119 44 -91 37 -111 42
-131 32 -14 -6 -25 -13 -25 -16 0 -3 33 -18 72 -35 39 -16 74 -37 76 -45 4
-13 2 -13 -14 1 -10 8 -46 23 -79 33 -33 10 -97 35 -143 57 -112 52 -165 69
-217 69 -25 0 -45 5 -47 12 -3 7 -7 4 -10 -7 -4 -18 1 -20 52 -21 36 -1 78
-11 120 -29 36 -15 115 -47 175 -72 168 -67 186 -77 242 -127 l52 -47 30 22
c24 18 33 20 45 10 8 -7 17 -8 20 -3 3 5 -14 15 -39 21 -54 14 -58 14 -50 1 3
-5 2 -10 -4 -10 -16 0 -22 18 -9 23 20 7 5 16 -30 20 -30 4 -72 31 -72 48 0 4
19 0 42 -11 22 -10 48 -16 56 -12 9 3 13 1 9 -4 -3 -6 31 -24 75 -42 l80 -32
29 23 c34 27 35 33 9 47 -14 8 -20 8 -20 0 0 -6 -7 -4 -16 4 -8 9 -22 16 -30
16 -10 0 -14 9 -12 30 1 17 8 30 15 30 7 0 18 9 25 20 7 11 18 20 23 20 6 0
27 18 48 40 20 22 41 40 46 40 5 0 16 8 23 18 7 11 23 24 36 31 12 7 20 16 17
22 -4 5 0 9 7 9 8 0 30 18 51 40 20 22 40 40 45 40 5 0 16 7 23 17 13 15 12
15 -8 4 -13 -6 -23 -8 -23 -4 0 4 11 13 25 20 17 8 25 8 25 0 0 -6 11 0 24 12
l23 22 7 -23 c5 -14 9 -18 13 -10 2 6 12 12 21 12 12 0 13 -3 5 -11 -16 -16
12 -43 37 -36 11 3 20 1 20 -4 0 -5 5 -9 10 -9 17 0 11 29 -10 50 -11 11 -32
23 -47 26 -15 4 -34 14 -42 21 -8 8 -22 12 -32 10 -11 -3 -19 -2 -19 3 0 14
-61 3 -78 -14 -15 -15 -15 -16 0 -16 9 0 18 5 20 12 3 7 7 6 11 -5 5 -14 0
-17 -33 -17 -46 0 -50 10 -15 36 l25 19 -32 7 c-26 5 -38 2 -55 -14 -13 -12
-26 -18 -30 -14 -4 4 3 15 16 25 21 16 21 19 6 24 -20 8 -38 0 -29 -14 3 -5 2
-9 -3 -8 -34 6 -48 -25 -15 -34 9 -3 5 -4 -10 -4 -23 1 -27 5 -22 22 3 11 15
27 27 36 l20 17 -21 6 c-27 9 -64 -10 -61 -32 3 -29 0 -31 -31 -21 -19 7 -30
18 -30 30 0 10 -5 19 -11 19 -5 0 -8 -4 -5 -9 8 -12 -42 -5 -58 8 -7 6 -16 8
-19 4 -4 -3 -12 -1 -19 4 -7 6 -31 16 -53 23 -51 16 -63 27 -46 43 11 10 13
10 7 0 -4 -7 -2 -13 4 -13 7 0 10 6 7 14 -4 9 3 16 16 20 16 4 19 8 10 17 -8
8 -16 6 -32 -10 -12 -12 -25 -21 -31 -21 -17 0 -11 18 10 33 18 13 19 15 5 21
-9 3 -14 2 -11 -3 18 -28 -60 -39 -117 -16 -12 5 -17 3 -15 -5 2 -7 -3 -15 -9
-17 -8 -3 -13 4 -13 16 0 11 -5 23 -10 26 -6 4 -7 12 -3 18 5 7 8 25 8 41 0
23 -6 32 -32 42 -27 12 -34 11 -56 -6z m57 -66 c-5 -34 -3 -48 7 -55 7 -4 10
-12 5 -16 -5 -4 -11 -2 -13 5 -3 6 -11 12 -19 12 -22 0 -65 -47 -58 -63 4 -11
-1 -13 -18 -11 -16 3 -35 -7 -64 -33 -63 -57 -134 -117 -153 -127 -9 -5 -27
-21 -41 -36 -14 -14 -36 -34 -50 -43 -27 -19 -80 -23 -80 -7 0 6 6 10 13 10 9
0 9 3 -1 9 -19 11 -11 45 11 49 12 2 15 -1 11 -12 -8 -20 13 -46 35 -46 14 1
14 2 -1 11 -22 12 -23 42 -3 59 8 7 12 16 9 21 -3 5 5 9 16 9 13 0 24 8 27 20
3 11 14 20 25 20 11 0 22 8 25 20 3 11 9 17 15 14 13 -9 40 17 34 33 -3 8 -2
12 3 8 14 -8 41 6 41 22 0 8 4 12 8 9 12 -7 53 24 47 35 -4 5 1 9 10 9 9 0 19
9 22 20 3 11 14 20 25 20 11 0 22 8 25 18 2 10 19 23 36 28 18 5 31 15 30 22
-2 6 4 12 13 12 13 0 14 -8 8 -46z m-194 -84 c0 -5 -2 -10 -4 -10 -3 0 -8 5
-11 10 -3 6 -1 10 4 10 6 0 11 -4 11 -10z m163 -15 c-3 -9 -8 -14 -10 -11 -3
3 -2 9 2 15 9 16 15 13 8 -4z m161 -6 c31 -12 56 -26 56 -31 0 -5 -10 -6 -22
-3 -11 4 -39 6 -62 5 -23 -1 -49 -1 -58 -1 -9 0 -22 -7 -29 -15 -6 -8 -19 -14
-28 -15 -11 0 -12 -2 -3 -6 7 -3 19 1 28 7 8 7 17 11 19 8 9 -9 -97 -88 -109
-81 -6 4 -14 8 -18 8 -24 0 -12 19 34 53 29 22 62 49 72 61 25 28 45 27 40 -1
-3 -18 -1 -17 8 5 7 15 13 27 14 27 1 0 27 -10 58 -21z m-164 -28 c0 -6 -4
-13 -10 -16 -5 -3 -10 1 -10 9 0 9 5 16 10 16 6 0 10 -4 10 -9z m-75 -31 c-18
-20 -35 -26 -35 -12 0 4 10 12 23 18 32 16 32 16 12 -6z m291 -1 c73 -22 381
-146 400 -160 6 -5 9 -23 6 -40 -3 -21 -8 -27 -15 -20 -7 7 -24 -2 -54 -26
-44 -36 -45 -37 -90 -24 -37 9 -48 9 -55 -1 -5 -9 -8 -7 -8 7 0 15 -14 26 -53
42 -47 19 -53 20 -64 6 -11 -14 -14 -13 -22 11 -11 28 -31 35 -31 11 0 -8 -4
-15 -10 -15 -5 0 -10 5 -10 11 0 5 -4 8 -9 4 -5 -3 -16 1 -24 9 -8 8 -30 18
-50 21 -20 4 -35 11 -32 15 3 5 -3 6 -14 3 -11 -3 -21 2 -25 12 -3 9 -2 13 4
10 6 -3 10 -1 10 4 0 6 -9 11 -21 11 -11 0 -17 -4 -14 -10 7 -12 -5 -13 -22
-2 -29 18 -17 44 42 92 33 27 67 49 76 50 9 0 48 -9 85 -21z m108 -8 c4 -5 -3
-7 -14 -4 -23 6 -26 13 -6 13 8 0 17 -4 20 -9z m121 -48 c19 -14 19 -15 -5 -8
-14 4 -36 14 -50 21 l-25 14 30 -6 c17 -4 39 -13 50 -21z m-575 8 c0 -11 -31
-24 -39 -16 -3 3 1 10 9 15 19 12 30 12 30 1z m40 -1 c0 -5 -4 -10 -10 -10 -5
0 -10 5 -10 10 0 6 5 10 10 10 6 0 10 -4 10 -10z m620 -40 c8 -5 11 -10 5 -10
-5 0 -17 5 -25 10 -8 5 -10 10 -5 10 6 0 17 -5 25 -10z m85 -25 c21 -8 39 -25
45 -40 13 -34 13 -35 -5 -28 -9 3 -14 11 -12 17 2 6 -19 23 -47 38 -54 29 -40
38 19 13z m-801 -16 c-3 -5 -10 -7 -15 -3 -5 3 -7 10 -3 15 3 5 10 7 15 3 5
-3 7 -10 3 -15z m66 16 c0 -2 -12 -16 -27 -31 -23 -22 -24 -25 -8 -20 11 3 -3
-16 -33 -44 -67 -63 -92 -65 -106 -7 -5 21 -3 27 9 27 9 0 13 -4 10 -10 -18
-29 59 22 109 73 16 15 46 24 46 12z m97 -16 c35 -12 63 -25 63 -29 0 -4 -31
0 -70 8 -44 10 -70 20 -70 29 0 17 2 17 77 -8z m-237 -24 c-7 -8 -17 -15 -22
-15 -6 0 -5 7 2 15 7 8 17 15 22 15 6 0 5 -7 -2 -15z m383 -31 c15 -4 27 -10
27 -15 0 -5 7 -9 15 -9 8 0 23 -4 33 -9 9 -5 36 -17 60 -27 23 -9 40 -19 38
-21 -5 -6 -126 37 -143 49 -6 5 -33 18 -60 29 -26 11 -37 17 -23 14 14 -3 37
-8 53 -11z m587 12 c0 -3 -4 -8 -10 -11 -5 -3 -10 -1 -10 4 0 6 5 11 10 11 6
0 10 -2 10 -4z m-1065 -56 c-10 -11 -23 -20 -29 -20 -6 0 0 9 14 20 32 25 38
25 15 0z m682 -2 c15 -6 30 -11 33 -11 3 1 12 -6 20 -15 13 -14 13 -15 0 -10
-8 3 -32 11 -52 19 -21 7 -38 17 -38 21 0 10 3 10 37 -4z m52 -59 c65 -21 81
-28 81 -39 0 -14 -37 -13 -46 1 -3 6 -25 20 -48 30 -46 21 -40 25 13 8z m126
-19 c3 -6 -1 -7 -9 -4 -18 7 -21 14 -7 14 6 0 13 -4 16 -10z m-60 -60 c3 -6
-1 -7 -9 -4 -18 7 -21 14 -7 14 6 0 13 -4 16 -10z m-65 -109 c0 -16 6 -31 13
-34 9 -3 9 -8 1 -17 -9 -9 -17 -9 -33 -1 -21 12 -26 35 -15 65 11 28 34 18 34
-13z m-60 -11 c0 -5 -7 -10 -16 -10 -8 0 -12 5 -9 10 3 6 10 10 16 10 5 0 9
-4 9 -10z m120 -44 c0 -2 -8 -10 -17 -17 -16 -13 -17 -12 -4 4 13 16 21 21 21
13z m-185 -16 c3 -6 -1 -7 -9 -4 -18 7 -21 14 -7 14 6 0 13 -4 16 -10z m215 6
c0 -2 -8 -10 -17 -17 -16 -13 -17 -12 -4 4 13 16 21 21 21 13z"/>
<path d="M2956 3561 c-22 -24 -20 -41 4 -41 11 0 20 4 20 9 0 5 9 13 20 16 23
7 19 20 -9 28 -12 3 -26 -2 -35 -12z"/>
<path d="M3040 3539 c0 -5 -5 -7 -10 -4 -12 7 -40 -12 -40 -26 0 -15 34 -5 66
19 27 20 28 21 7 22 -13 0 -23 -5 -23 -11z m-10 -19 c0 -5 -2 -10 -4 -10 -3 0
-8 5 -11 10 -3 6 -1 10 4 10 6 0 11 -4 11 -10z"/>
<path d="M3070 3520 c-14 -9 -7 -14 13 -11 5 1 6 -3 2 -9 -3 -6 -11 -8 -16 -5
-5 4 -9 1 -9 -4 0 -6 6 -11 13 -11 18 0 68 36 60 43 -9 10 -46 8 -63 -3z"/>
<path d="M3149 3508 c-5 -19 -6 -38 -1 -38 10 1 42 26 42 34 0 5 -39 9 -41 4z"/>
<path d="M3120 3475 c0 -8 4 -15 8 -15 5 0 9 7 9 15 0 8 -4 15 -9 15 -4 0 -8
-7 -8 -15z"/>
<path d="M4608 3433 c7 -3 16 -2 19 1 4 3 -2 6 -13 5 -11 0 -14 -3 -6 -6z"/>
<path d="M3474 3315 c3 -8 1 -15 -4 -15 -13 0 -90 -70 -90 -82 0 -5 5 -6 10
-3 6 3 10 2 10 -4 0 -15 -18 -23 -25 -11 -10 16 -18 12 -64 -30 -23 -22 -48
-37 -53 -33 -6 3 -8 1 -5 -5 4 -5 -8 -23 -25 -38 -21 -17 -28 -29 -20 -31 17
-6 15 -30 -4 -37 -23 -9 -27 -8 -21 8 6 14 -21 32 -31 21 -3 -3 0 -5 7 -5 7 0
9 -5 6 -11 -4 -6 -13 -8 -21 -5 -8 3 -11 0 -7 -10 3 -9 -2 -14 -17 -14 -16 0
-20 -4 -16 -16 3 -9 6 -18 6 -20 0 -3 4 -3 10 1 5 3 20 3 34 -1 18 -4 23 -10
18 -22 -3 -10 13 1 36 23 22 22 60 57 84 78 24 21 65 58 91 84 26 25 51 42 55
39 7 -7 -28 -42 -164 -161 -37 -33 -92 -81 -121 -107 -59 -53 -72 -58 -80 -28
-8 30 -23 13 -23 -25 0 -19 -4 -37 -10 -40 -6 -4 -10 6 -10 23 0 16 -3 32 -6
35 -14 14 -62 -35 -98 -102 -35 -63 -42 -70 -63 -65 -24 6 -53 -10 -53 -30 0
-6 7 -3 14 7 10 13 21 15 45 11 23 -5 29 -10 21 -19 -6 -7 -22 -10 -38 -8 -21
4 -24 2 -12 -6 12 -8 6 -11 -26 -11 -25 0 -44 5 -47 13 -3 7 -32 21 -66 32
-33 10 -68 26 -77 37 -10 10 -26 18 -36 18 -10 0 -21 7 -24 15 -4 8 -16 15
-28 15 -36 0 -110 26 -197 70 -46 23 -88 46 -94 51 -5 5 -16 9 -25 9 -20 0
-64 51 -67 79 -3 23 12 29 20 9 3 -7 6 -1 6 14 1 31 -15 46 -21 20 -3 -12 -36
-30 -94 -52 -49 -18 -90 -34 -92 -35 -1 -1 2 -15 9 -31 6 -16 12 -41 13 -56 2
-23 -3 -27 -30 -32 -17 -4 -39 -4 -48 0 -9 3 -16 1 -16 -4 0 -6 9 -14 20 -17
29 -9 25 -25 -7 -25 -15 0 -23 -4 -18 -8 6 -5 75 -14 155 -21 80 -7 194 -23
253 -37 111 -27 115 -27 157 3 23 17 24 17 17 -1 -6 -16 -4 -17 18 -12 37 9
33 -23 -9 -68 -31 -34 -37 -37 -70 -31 -35 7 -36 6 -36 -24 0 -44 35 -51 88
-16 58 38 135 44 193 15 62 -32 124 -75 191 -132 31 -26 61 -48 67 -48 10 0
15 16 14 48 -1 14 23 16 32 2 3 -5 12 -10 18 -10 7 0 6 4 -3 10 -11 7 -11 10
-2 10 18 0 4 20 -22 30 -16 7 -9 9 30 9 27 1 56 7 63 14 10 10 19 4 47 -28 31
-37 34 -38 34 -16 0 29 21 101 29 101 4 0 8 9 9 20 4 42 6 48 25 60 19 11 18
10 -2 -24 -32 -51 -21 -45 19 10 l33 46 72 -6 c60 -5 76 -4 89 9 20 21 21 79
1 95 -8 7 -15 16 -15 20 0 14 144 83 250 121 96 34 105 39 108 64 3 27 2 28
-32 22 -34 -5 -60 7 -34 16 10 3 7 16 -9 51 -13 25 -23 60 -23 76 0 19 -7 33
-19 40 -25 13 -42 13 -18 -1 9 -5 17 -15 17 -21 0 -6 -16 5 -35 25 -42 43 -40
73 3 54 15 -6 33 -15 40 -20 9 -7 11 -6 7 5 -3 8 -18 21 -33 30 -22 13 -31 14
-48 5 -30 -17 -24 -55 14 -88 25 -22 28 -30 19 -42 -17 -21 -96 -8 -125 21
l-21 21 35 35 c29 29 33 38 25 55 -16 28 -14 33 8 21 26 -13 31 -13 31 5 0 10
-10 15 -30 15 -16 0 -30 5 -30 10 0 6 -5 10 -11 10 -6 0 -9 -7 -5 -15z m-14
-48 c0 -2 -10 -12 -22 -23 l-23 -19 19 23 c18 21 26 27 26 19z m-15 -67 c-3
-5 -10 -10 -16 -10 -5 0 -9 5 -9 10 0 6 7 10 16 10 8 0 12 -4 9 -10z m-85 -24
c0 -2 -8 -10 -17 -17 -16 -13 -17 -12 -4 4 13 16 21 21 21 13z m-50 -52 c0 -8
-4 -12 -10 -9 -5 3 -10 2 -10 -3 0 -5 -12 -18 -27 -27 -25 -16 -25 -14 6 19
40 41 41 42 41 20z m169 -13 c27 -37 26 -41 -5 -41 -19 0 -25 -4 -20 -15 9
-24 -13 -69 -44 -90 -17 -11 -30 -26 -30 -32 0 -7 -5 -13 -11 -13 -6 0 -36
-25 -67 -55 -48 -48 -58 -53 -76 -43 -18 10 -19 9 -9 -4 11 -13 2 -24 -54 -74
-36 -32 -72 -65 -80 -72 -7 -8 -20 -11 -28 -8 -24 9 -8 96 22 121 13 11 25 29
27 39 1 11 9 22 17 24 11 3 11 1 -1 -7 -11 -8 -11 -11 -2 -11 7 0 17 11 22 24
5 13 15 27 22 32 7 4 10 4 6 -1 -13 -14 32 -39 45 -26 8 8 6 11 -7 11 -10 0
-16 5 -13 13 2 6 10 11 16 10 6 -2 11 3 11 10 0 8 4 7 10 -3 8 -12 10 -9 10
13 0 17 5 27 15 27 8 0 19 10 26 21 8 16 13 18 19 9 5 -8 9 -4 14 13 3 13 17
32 31 41 14 9 25 21 25 27 0 7 -6 6 -17 -2 -16 -13 -17 -12 -5 2 7 10 21 15
31 12 11 -3 21 2 25 12 4 11 2 14 -7 9 -6 -4 1 7 17 24 17 18 33 32 37 32 4 0
17 -13 28 -29z m-127 7 c-9 -9 -15 -9 -24 0 -9 9 -7 12 12 12 19 0 21 -3 12
-12z m265 -23 c0 -8 -6 -15 -13 -15 -7 0 -15 -8 -18 -17 -3 -11 -4 -7 -3 7 1
14 9 28 17 32 8 4 15 7 16 7 0 1 1 -6 1 -14z m-307 1 c0 -2 -8 -10 -17 -17
-16 -13 -17 -12 -4 4 13 16 21 21 21 13z m256 -93 c-3 -3 -8 3 -11 13 -4 10
-10 26 -14 34 -4 8 -6 21 -3 29 3 8 11 -5 19 -28 8 -24 12 -45 9 -48z m64 26
c0 -10 -4 -19 -10 -19 -5 0 -10 12 -10 26 0 14 4 23 10 19 6 -3 10 -15 10 -26z
m-368 9 c-9 -9 -15 -9 -24 0 -9 9 -7 12 12 12 19 0 21 -3 12 -12z m329 -63
c-38 -17 -61 -19 -61 -6 0 9 27 15 80 19 8 1 0 -5 -19 -13z m43 -30 c-49 -17
-111 -41 -138 -53 -55 -25 -56 -25 -56 -13 0 5 12 12 28 16 32 8 64 34 56 46
-3 5 1 6 8 4 8 -3 38 5 67 18 34 15 65 21 88 19 35 -4 32 -6 -53 -37z m-1507
20 c0 -10 -10 -15 -31 -15 l-31 1 30 14 c17 7 30 14 31 14 0 1 1 -6 1 -14z
m1374 -8 c-13 -13 -26 -3 -16 12 3 6 11 8 17 5 6 -4 6 -10 -1 -17z m-57 -12
c-4 -8 -2 -15 4 -15 6 0 12 5 14 12 3 8 9 8 22 1 13 -7 15 -13 7 -17 -6 -4
-11 -2 -11 5 0 8 -6 6 -18 -4 -34 -31 -74 -17 -45 15 20 22 35 24 27 3z
m-1390 -8 c-2 -7 -13 -18 -23 -24 -16 -10 -20 -9 -25 3 -4 10 -1 14 6 12 7 -3
19 1 26 9 17 16 23 17 16 0z m96 -19 c0 -19 -2 -20 -10 -8 -13 19 -13 30 0 30
6 0 10 -10 10 -22z m-50 2 c0 -5 -4 -10 -10 -10 -5 0 -10 5 -10 10 0 6 5 10
10 10 6 0 10 -4 10 -10z m20 -48 c0 -15 -2 -15 -10 -2 -13 20 -13 33 0 25 6
-3 10 -14 10 -23z m1300 20 c0 -13 -12 -22 -22 -16 -10 6 -1 24 13 24 5 0 9
-4 9 -8z m-1240 -28 c0 -19 -4 -25 -15 -20 -17 6 -19 1 -5 -23 8 -16 6 -17
-16 -13 -23 4 -24 6 -9 26 9 11 18 29 22 39 8 26 23 21 23 -9z m60 6 c18 -10
18 -11 -7 -36 -17 -17 -24 -33 -20 -50 3 -18 0 -24 -13 -24 -13 0 -16 7 -12
30 2 17 8 33 13 36 5 3 9 16 9 30 0 27 3 28 30 14z m1103 -15 c-18 -25 -33
-32 -33 -16 0 7 37 39 48 40 2 1 -5 -10 -15 -24z m-1283 5 c0 -5 -4 -10 -10
-10 -5 0 -10 5 -10 10 0 6 5 10 10 10 6 0 10 -4 10 -10z m1368 -5 c-2 -1 -19
-10 -38 -20 -27 -14 -32 -15 -23 -3 7 8 11 17 9 19 -3 2 9 5 25 5 17 1 29 1
27 -1z m-1048 -80 c-7 -8 -7 -15 -1 -19 5 -3 11 -2 13 3 1 4 13 11 24 15 31 9
38 -17 11 -41 -21 -19 -24 -19 -81 -3 -41 11 -54 18 -43 23 21 8 24 67 3 67
-8 0 -16 6 -19 14 -3 8 17 1 49 -16 43 -23 52 -33 44 -43z m-285 36 c3 -10 20
-23 38 -29 28 -10 24 -11 -32 -7 -35 3 -79 5 -97 5 -19 0 -34 5 -34 10 0 6 8
10 18 10 10 0 22 4 28 9 9 9 36 17 61 20 6 0 14 -7 18 -18z m995 15 c0 -3 -4
-8 -10 -11 -5 -3 -10 -1 -10 4 0 6 5 11 10 11 6 0 10 -2 10 -4z m-820 -20 c0
-8 6 -16 13 -19 6 -2 1 -2 -13 0 -30 6 -34 9 -25 22 9 16 25 13 25 -3z m1060
4 c0 -5 -4 -10 -10 -10 -5 0 -10 5 -10 10 0 6 5 10 10 10 6 0 10 -4 10 -10z
m-300 -62 c0 -16 -5 -39 -11 -50 -10 -18 -8 -24 10 -37 24 -19 19 -31 -13 -30
-12 0 -15 3 -8 6 17 7 15 23 -3 23 -8 0 -15 -4 -15 -8 0 -5 -13 -7 -30 -4 -18
3 -30 0 -30 -7 0 -6 -9 -11 -19 -11 -31 0 -51 -11 -51 -28 0 -12 -3 -13 -12
-4 -18 18 -58 15 -58 -4 0 -15 -2 -15 -26 0 -14 10 -30 16 -36 14 -5 -2 6 -13
27 -23 36 -20 37 -20 50 -1 13 17 15 17 30 3 18 -19 42 -13 48 11 4 15 5 15 6
1 0 -9 -6 -22 -15 -30 -13 -10 -19 -10 -36 0 -17 11 -22 10 -29 -1 -6 -9 8
-27 46 -61 84 -74 66 -75 -30 -2 -126 96 -173 117 -250 113 l-62 -3 21 27 c18
24 26 27 56 23 26 -4 31 -3 20 4 -8 6 -23 11 -32 11 -11 0 -18 8 -18 20 0 11
3 20 7 20 3 0 46 -17 95 -37 75 -32 86 -40 72 -50 -14 -10 -11 -12 18 -15 105
-10 161 25 210 131 28 61 30 63 49 45 10 -9 19 -30 19 -46z m240 49 c0 -2 -10
-12 -22 -23 l-23 -19 19 23 c18 21 26 27 26 19z m121 -27 c21 -17 22 -21 9
-30 -21 -14 -53 -12 -75 4 -16 12 -17 16 -6 30 18 22 44 20 72 -4z m-1118 -17
c-7 -2 -19 -2 -25 0 -7 3 -2 5 12 5 14 0 19 -2 13 -5z m242 -3 c13 -6 15 -9 5
-9 -8 0 -22 4 -30 9 -18 12 -2 12 25 0z m838 -40 c31 0 38 -3 27 -10 -18 -11
-82 -2 -92 14 -5 8 -8 7 -8 -1 0 -7 -5 -13 -11 -13 -8 0 -8 4 0 14 6 7 8 22 5
32 -5 12 1 9 15 -8 18 -22 31 -28 64 -28z m-113 20 c0 -5 -7 -10 -16 -10 -8 0
-12 5 -9 10 3 6 10 10 16 10 5 0 9 -4 9 -10z m-77 -34 c-10 -13 -20 -22 -22
-20 -4 4 29 44 36 44 2 0 -4 -11 -14 -24z m-63 -51 c-10 -12 -10 -18 1 -32 13
-15 12 -16 -9 -11 -12 4 -28 1 -35 -6 -8 -9 -20 -10 -35 -5 -29 11 -28 21 1
14 16 -4 30 2 52 25 30 31 47 42 25 15z m60 6 c0 -12 -20 -25 -27 -18 -7 7 6
27 18 27 5 0 9 -4 9 -9z m-180 -31 c13 -8 13 -10 -2 -10 -9 0 -20 5 -23 10 -8
13 5 13 25 0z m-50 -41 c0 -5 -4 -9 -10 -9 -5 0 -10 7 -10 16 0 8 5 12 10 9 6
-3 10 -10 10 -16z m-510 -10 c0 -6 -4 -7 -10 -4 -5 3 -10 11 -10 16 0 6 5 7
10 4 6 -3 10 -11 10 -16z m698 -22 c-8 -22 -13 -25 -24 -16 -23 19 -17 44 10
44 21 0 22 -3 14 -28z m-63 12 c12 -19 -3 -22 -27 -5 l-22 16 21 0 c12 0 25
-5 28 -11z m-193 -19 c10 0 18 6 18 13 1 20 40 -33 40 -54 0 -24 -7 -24 -34 1
-11 10 -30 27 -41 37 -11 10 -16 15 -11 11 6 -5 18 -8 28 -8z m118 10 c0 -5
-10 -10 -22 -10 -19 0 -20 2 -8 10 19 13 30 13 30 0z"/>
<path d="M3392 3030 c0 -14 2 -19 5 -12 2 6 2 18 0 25 -3 6 -5 1 -5 -13z"/>
<path d="M3347 2976 c-5 -15 -6 -31 -3 -34 8 -8 18 25 14 45 -3 13 -6 10 -11
-11z"/>
<path d="M3300 2930 c0 -11 -7 -20 -15 -20 -9 0 -18 -7 -21 -15 -4 -8 -13 -15
-21 -15 -8 0 -11 -4 -8 -10 10 -15 35 -12 35 5 0 8 7 15 15 15 14 0 35 29 35
49 0 6 -4 11 -10 11 -5 0 -10 -9 -10 -20z"/>
<path d="M3140 2786 c0 -2 7 -7 16 -10 8 -3 12 -2 9 4 -6 10 -25 14 -25 6z"/>
<path d="M3071 2728 c-7 -11 -7 -19 -1 -23 6 -4 13 1 16 9 3 9 12 16 20 16 8
0 14 4 14 8 0 15 -38 8 -49 -10z"/>
<path d="M3630 3286 c0 -2 8 -10 18 -17 15 -13 16 -12 3 4 -13 16 -21 21 -21
13z"/>
<path d="M4592 3270 c0 -14 2 -19 5 -12 2 6 2 18 0 25 -3 6 -5 1 -5 -13z"/>
<path d="M4571 3263 c-1 -12 -3 -28 -6 -36 -4 -8 0 -14 10 -14 16 0 17 9 5 47
-7 23 -8 23 -9 3z"/>
<path d="M3674 3208 c20 -55 19 -54 2 -33 -17 19 -17 19 -11 -10 8 -37 10 -39
30 -31 19 7 11 52 -13 76 -13 13 -14 13 -8 -2z"/>
<path d="M2338 3163 c6 -2 18 -2 25 0 6 3 1 5 -13 5 -14 0 -19 -2 -12 -5z"/>
<path d="M4327 3153 c-4 -3 -7 -15 -7 -25 0 -13 7 -18 25 -18 26 0 29 7 19 34
-6 16 -26 21 -37 9z"/>
<path d="M4252 3136 c10 -7 16 -15 13 -17 -2 -3 7 -6 20 -7 18 -1 23 3 22 18
-1 16 -8 20 -37 20 -31 -1 -33 -2 -18 -14z"/>
<path d="M4005 3120 c-24 -6 -26 -8 -7 -9 12 0 22 -5 22 -10 0 -5 9 -7 20 -4
11 3 20 12 20 19 0 15 -9 16 -55 4z"/>
<path d="M4070 3120 c0 -5 6 -10 14 -10 8 0 18 5 21 10 3 6 -3 10 -14 10 -12
0 -21 -4 -21 -10z"/>
<path d="M3710 3105 c0 -18 17 -38 24 -27 3 5 17 7 31 4 15 -2 25 0 25 7 0 19
27 12 33 -9 3 -12 14 -20 25 -20 27 0 37 17 22 35 -15 18 -125 21 -136 4 -4
-8 -9 -7 -15 2 -5 8 -9 10 -9 4z m67 -11 c-3 -3 -12 -4 -19 -1 -8 3 -5 6 6 6
11 1 17 -2 13 -5z"/>
<path d="M4158 3093 c6 -2 18 -2 25 0 6 3 1 5 -13 5 -14 0 -19 -2 -12 -5z"/>
<path d="M4340 3070 c0 -5 7 -7 15 -4 8 4 15 1 15 -5 0 -6 -9 -11 -20 -11 -11
0 -20 -4 -20 -8 0 -5 13 -7 28 -4 36 5 40 42 5 42 -13 0 -23 -4 -23 -10z"/>
<path d="M3751 3050 c-1 -18 -4 -21 -10 -11 -6 9 -11 10 -15 2 -7 -11 20 -28
30 -18 3 3 4 16 1 29 -4 23 -4 23 -6 -2z"/>
<path d="M4240 3040 c0 -11 2 -20 4 -20 2 0 6 9 9 20 3 11 1 20 -4 20 -5 0 -9
-9 -9 -20z"/>
<path d="M3870 2990 c0 -5 5 -10 10 -10 6 0 10 5 10 10 0 6 -4 10 -10 10 -5 0
-10 -4 -10 -10z"/>
<path d="M3925 2990 c-3 -5 -1 -10 4 -10 6 0 11 5 11 10 0 6 -2 10 -4 10 -3 0
-8 -4 -11 -10z"/>
<path d="M4460 2950 c0 -12 29 -40 41 -40 19 0 8 25 -16 37 -14 6 -25 7 -25 3z"/>
<path d="M2611 2924 c0 -11 3 -14 6 -6 3 7 2 16 -1 19 -3 4 -6 -2 -5 -13z"/>
<path d="M1833 2913 c-66 -16 -82 -36 -40 -52 24 -10 40 -5 32 10 -4 5 2 9 12
9 15 0 16 2 3 10 -9 6 -10 10 -3 10 6 0 15 -5 18 -10 4 -6 11 -8 16 -4 6 3 16
-2 23 -12 9 -11 15 -13 20 -6 4 6 13 9 21 6 12 -5 13 -1 4 25 -12 35 -16 35
-106 14z"/>
<path d="M1560 2871 l-35 -7 33 -5 c19 -3 32 -1 33 5 0 6 5 1 11 -11 18 -37
60 -30 51 8 -6 20 -26 22 -93 10z m80 -21 c0 -5 -4 -10 -10 -10 -5 0 -10 5
-10 10 0 6 5 10 10 10 6 0 10 -4 10 -10z"/>
<path d="M1928 2853 c7 -3 16 -2 19 1 4 3 -2 6 -13 5 -11 0 -14 -3 -6 -6z"/>
<path d="M1310 2843 c0 -5 5 -15 10 -23 8 -13 13 -13 31 -2 11 8 18 9 14 3 -3
-6 1 -11 9 -11 9 0 16 9 16 20 0 17 -7 20 -40 20 -22 0 -40 -3 -40 -7z"/>
<path d="M1250 2828 c0 -20 13 -33 38 -36 26 -4 29 15 5 34 -23 17 -43 18 -43
2z"/>
<path d="M1450 2820 c-13 -8 -13 -10 2 -10 9 0 20 5 23 10 8 13 -5 13 -25 0z"/>
<path d="M1848 2813 c7 -3 16 -2 19 1 4 3 -2 6 -13 5 -11 0 -14 -3 -6 -6z"/>
<path d="M1735 2800 c-3 -5 -1 -10 4 -10 6 0 11 5 11 10 0 6 -2 10 -4 10 -3 0
-8 -4 -11 -10z"/>
<path d="M1798 2803 c7 -3 16 -2 19 1 4 3 -2 6 -13 5 -11 0 -14 -3 -6 -6z"/>
<path d="M1610 2790 c0 -5 7 -7 15 -4 8 4 15 8 15 10 0 2 -7 4 -15 4 -8 0 -15
-4 -15 -10z"/>
<path d="M1650 2789 c0 -5 5 -7 10 -4 6 3 10 8 10 11 0 2 -4 4 -10 4 -5 0 -10
-5 -10 -11z"/>
<path d="M1513 2760 c1 -11 5 -20 9 -20 3 0 6 9 5 20 -1 11 -5 20 -9 20 -3 0
-6 -9 -5 -20z"/>
<path d="M1735 2770 c-3 -5 -1 -10 4 -10 6 0 11 5 11 10 0 6 -2 10 -4 10 -3 0
-8 -4 -11 -10z"/>
<path d="M1288 2763 c-11 -3 -18 -14 -18 -29 0 -21 4 -25 23 -22 16 2 23 11
25 31 3 27 1 28 -30 20z"/>
<path d="M2807 2753 c-4 -3 -7 -16 -6 -27 0 -19 1 -19 10 3 10 24 8 36 -4 24z"/>
<path d="M1680 2690 c-13 -8 -13 -10 2 -10 9 0 20 5 23 10 8 13 -5 13 -25 0z"/>
<path d="M1275 2680 c-3 -5 3 -10 14 -10 12 0 21 5 21 10 0 6 -6 10 -14 10 -8
0 -18 -4 -21 -10z"/>
<path d="M2414 2653 c3 -7 0 -13 -7 -13 -19 0 15 -20 36 -20 9 0 17 7 17 16 0
11 -5 14 -16 10 -13 -5 -14 -3 -6 7 8 10 6 13 -9 13 -12 0 -18 -5 -15 -13z"/>
<path d="M1112 2619 c2 -6 8 -10 13 -10 5 0 11 4 13 10 2 6 -4 11 -13 11 -9 0
-15 -5 -13 -11z"/>
<path d="M4080 2483 c-108 -20 -394 -91 -525 -131 l-160 -49 -27 29 c-21 22
-35 28 -70 28 -24 0 -53 -7 -64 -15 -13 -10 -46 -14 -111 -15 -51 0 -128 -7
-170 -15 -43 -8 -147 -26 -232 -40 -227 -37 -305 -60 -352 -105 -44 -41 -47
-60 -24 -138 19 -63 35 -72 135 -79 105 -8 240 16 441 78 90 28 171 51 179 52
8 1 25 8 38 15 20 12 26 11 40 -1 23 -21 78 -35 67 -17 -6 10 0 12 31 7 33 -6
65 0 151 28 1 0 4 12 8 28 6 22 2 32 -24 56 l-32 30 25 16 c18 12 86 22 253
36 304 26 475 53 527 82 51 28 66 65 42 101 -14 23 -23 26 -69 25 -28 -1 -63
-4 -77 -6z m121 -29 c9 -11 10 -20 3 -32 -24 -37 -64 -54 -171 -72 -95 -17
-518 -61 -562 -59 -9 0 47 20 124 44 117 37 217 62 520 128 43 10 73 6 86 -9z
m-887 -120 c13 -5 14 -10 5 -20 -6 -7 -9 -19 -6 -26 4 -9 6 -7 6 3 1 26 29 31
41 9 6 -11 18 -20 28 -20 11 0 5 -7 -15 -20 -30 -18 -33 -24 -33 -70 0 -43 3
-50 19 -50 11 0 23 5 26 10 8 13 25 13 25 0 0 -14 -107 -42 -132 -35 -19 7
-19 8 -5 17 30 16 22 72 -14 103 -18 14 -38 24 -46 21 -8 -4 -19 -6 -23 -6 -5
0 -18 -10 -29 -21 -15 -16 -26 -20 -46 -15 -20 5 -26 3 -23 -6 6 -19 49 -21
81 -5 30 16 77 11 77 -7 0 -28 -60 -76 -96 -76 -12 0 -35 -7 -50 -15 -16 -8
-45 -18 -64 -21 -19 -3 -78 -19 -130 -35 -176 -53 -271 -72 -370 -73 -123 -1
-148 6 -166 49 -31 75 -13 121 61 158 84 41 530 115 724 119 96 2 114 5 122
20 11 20 11 20 33 12z m-44 -14 c0 -5 -4 -10 -10 -10 -5 0 -10 5 -10 10 0 6 5
10 10 10 6 0 10 -4 10 -10z m110 -151 c0 -5 -7 -9 -15 -9 -15 0 -20 12 -9 23
8 8 24 -1 24 -14z"/>
<path d="M880 2470 c20 -13 43 -13 35 0 -3 6 -16 10 -28 10 -18 0 -19 -2 -7
-10z"/>
<path d="M3040 2460 c0 -5 7 -7 15 -4 8 4 15 8 15 10 0 2 -7 4 -15 4 -8 0 -15
-4 -15 -10z"/>
<path d="M3090 2405 c0 -24 5 -35 14 -35 20 0 25 11 19 43 -8 40 -33 35 -33
-8z"/>
<path d="M2976 2421 c-14 -22 17 -57 47 -52 4 0 7 -3 7 -9 0 -5 5 -10 11 -10
8 0 7 5 -2 16 -10 13 -10 17 2 25 11 7 10 9 -5 9 -11 0 -27 7 -37 16 -11 10
-19 12 -23 5z"/>
</g>
</svg>
